<svg width="14" height="16" viewBox="0 0 14 16" fill="none" xmlns="http://www.w3.org/2000/svg">
<path d="M12 8.00013C12 8.56413 11.906 9.10713 11.734 9.61313L10.92 8.79913C10.9733 8.53614 11.0001 8.26847 11 8.00013V7.00013C11 6.86753 11.0527 6.74035 11.1464 6.64658C11.2402 6.55281 11.3674 6.50013 11.5 6.50013C11.6326 6.50013 11.7598 6.55281 11.8536 6.64658C11.9473 6.74035 12 6.86753 12 7.00013V8.00013ZM7 12.0001C7.818 12.0001 8.578 11.7551 9.212 11.3331L9.93 12.0521C9.21616 12.5698 8.37751 12.8883 7.5 12.9751V15.0001H10.5C10.6326 15.0001 10.7598 15.0528 10.8536 15.1466C10.9473 15.2403 11 15.3675 11 15.5001C11 15.6327 10.9473 15.7599 10.8536 15.8537C10.7598 15.9475 10.6326 16.0001 10.5 16.0001H3.5C3.36739 16.0001 3.24021 15.9475 3.14645 15.8537C3.05268 15.7599 3 15.6327 3 15.5001C3 15.3675 3.05268 15.2403 3.14645 15.1466C3.24021 15.0528 3.36739 15.0001 3.5 15.0001H6.5V12.9751C5.26668 12.8512 4.12338 12.2735 3.29188 11.3543C2.46038 10.435 1.99998 9.23966 2 8.00013V7.00013C2 6.86753 2.05268 6.74035 2.14645 6.64658C2.24021 6.55281 2.36739 6.50013 2.5 6.50013C2.63261 6.50013 2.75979 6.55281 2.85355 6.64658C2.94732 6.74035 3 6.86753 3 7.00013V8.00013C3 9.061 3.42143 10.0784 4.17157 10.8286C4.92172 11.5787 5.93913 12.0001 7 12.0001ZM10 3.00013V7.87913L9 6.87913V3.00013C9.00231 2.47839 8.80064 1.97641 8.43803 1.60127C8.07541 1.22613 7.58056 1.00755 7.05904 0.99215C6.53752 0.976754 6.03063 1.16576 5.64652 1.51886C5.2624 1.87195 5.03147 2.36117 5.003 2.88213L4.158 2.03713C4.38694 1.36438 4.8472 0.794691 5.45683 0.429501C6.06647 0.0643102 6.78592 -0.0726878 7.4871 0.0428959C8.18829 0.15848 8.8257 0.519144 9.28587 1.06068C9.74604 1.60222 9.9991 2.28949 10 3.00013V3.00013Z" fill="white"/>
<path d="M8.48648 10.607L7.73848 9.859C7.4351 9.97944 7.10685 10.0238 6.78238 9.98821C6.45792 9.95261 6.14709 9.83814 5.87704 9.65479C5.60699 9.47143 5.38592 9.22477 5.23312 8.93632C5.08033 8.64787 5.00046 8.32641 5.00048 8V7.122L4.00048 6.122V8C4.00033 8.52531 4.13811 9.04146 4.40006 9.49681C4.662 9.95216 5.03892 10.3307 5.49312 10.5947C5.94731 10.8586 6.46284 10.9987 6.98816 11.0009C7.51347 11.003 8.03014 10.8672 8.48648 10.607V10.607ZM0.646484 1.354L12.6465 13.354L13.3545 12.646L1.35448 0.645996L0.646484 1.354V1.354Z" fill="white"/>
</svg>
